<?xml version="1.0" encoding="UTF-8" standalone="no"?>
<!DOCTYPE svg PUBLIC "-//W3C//DTD SVG 20010904//EN"
              "http://www.w3.org/TR/2001/REC-SVG-20010904/DTD/svg10.dtd">

<svg xmlns="http://www.w3.org/2000/svg"
     width="1.43056in" height="0.652778in"
     viewBox="0 0 103 47">
  <path id="Path"
        fill="none" stroke="black" stroke-width="1"
        d="M 7.88,1.00
           C 7.88,1.00 60.75,1.00 60.75,1.00
             60.75,1.00 69.75,19.88 69.75,19.88
             69.75,19.88 101.88,19.88 101.88,19.88
             101.88,19.88 101.88,45.75 101.88,45.75
             101.88,45.75 59.00,45.88 59.00,45.88
             59.00,45.88 58.00,45.12 58.00,45.12
             58.00,45.12 58.00,42.88 58.00,42.88
             58.00,42.88 39.88,42.75 39.88,42.75
             39.88,42.75 40.00,45.88 40.00,45.88
             40.00,45.88 1.00,45.88 1.00,45.88
             1.00,45.88 0.75,11.75 0.75,11.75
             0.75,11.75 5.50,6.75 5.50,6.75
             5.50,6.75 7.88,6.88 7.88,6.88" />
</svg>
