<?xml version="1.0" encoding="UTF-8" standalone="no"?>
<!DOCTYPE svg PUBLIC "-//W3C//DTD SVG 20010904//EN"
              "http://www.w3.org/TR/2001/REC-SVG-20010904/DTD/svg10.dtd">

<svg xmlns="http://www.w3.org/2000/svg"
     width="1.36111in" height="0.416667in"
     viewBox="0 0 98 30">
  <path id="Unnamed"
        fill="none" stroke="black" stroke-width="1"
        d="M 4.50,0.12
           C 4.50,0.12 20.00,7.75 20.00,7.75
             20.00,7.75 68.00,7.88 68.00,7.88
             68.00,7.88 67.88,10.88 67.88,10.88
             67.88,10.88 75.75,10.88 75.75,10.88
             75.75,10.88 75.75,6.88 75.75,6.88
             75.75,6.88 93.94,0.94 93.94,0.94
             93.94,0.94 97.88,0.94 97.88,0.94
             97.88,0.94 97.91,26.00 97.91,26.00
             97.91,26.00 89.91,29.96 89.91,29.96
             89.91,29.96 75.91,29.96 75.91,29.96
             75.91,29.96 75.96,22.96 75.96,22.96
             75.96,22.96 67.96,22.96 67.96,22.96
             67.96,22.96 67.96,29.96 67.96,29.96
             67.96,29.96 -0.03,29.97 -0.03,29.97
             -0.03,29.97 -0.04,0.00 -0.04,0.00" />
</svg>
