<?xml version="1.0" encoding="UTF-8" standalone="no"?>
<!DOCTYPE svg PUBLIC "-//W3C//DTD SVG 20010904//EN"
              "http://www.w3.org/TR/2001/REC-SVG-20010904/DTD/svg10.dtd">

<svg xmlns="http://www.w3.org/2000/svg"
     width="1.43056in" height="0.652778in"
     viewBox="0 0 103 47">
  <path id="Selection #2"
        fill="none" stroke="black" stroke-width="1"
        d="M 7.00,0.00
           C 6.18,9.98 0.21,5.65 0.00,17.00
             0.00,17.00 0.00,47.00 0.00,47.00
             0.00,47.00 41.00,47.00 41.00,47.00
             41.00,47.00 41.00,44.15 41.00,44.15
             41.00,44.15 53.91,44.15 53.91,44.15
             53.91,44.15 66.00,47.00 66.00,47.00
             66.00,47.00 103.00,47.00 103.00,47.00
             103.00,47.00 103.00,19.00 103.00,19.00
             103.00,19.00 78.00,19.00 78.00,19.00
             78.00,19.00 71.39,17.98 71.39,17.98
             71.39,17.98 60.61,1.02 60.61,1.02
             60.61,1.02 53.00,0.00 53.00,0.00
             53.00,0.00 7.00,0.00 7.00,0.00 Z" />
</svg>
