<?xml version="1.0" encoding="UTF-8" standalone="no"?>
<!DOCTYPE svg PUBLIC "-//W3C//DTD SVG 20010904//EN"
              "http://www.w3.org/TR/2001/REC-SVG-20010904/DTD/svg10.dtd">

<svg xmlns="http://www.w3.org/2000/svg"
     width="1.43056in" height="0.652778in"
     viewBox="0 0 103 47">
  <path id="Unnamed"
        fill="none" stroke="black" stroke-width="1"
        d="M 61.12,0.25
           C 61.12,0.25 70.50,19.00 70.50,19.00
             70.50,19.00 102.88,19.12 102.88,19.12
             102.88,19.12 102.88,46.75 102.88,46.75
             102.88,46.75 58.00,46.62 58.00,46.62
             58.00,46.62 56.88,45.62 56.88,45.62
             56.88,45.62 57.00,44.00 57.00,44.00
             57.00,44.00 41.00,44.00 41.00,44.00
             41.00,44.00 40.88,46.88 40.88,46.88
             40.88,46.88 0.00,46.62 0.00,46.62
             0.00,46.62 0.00,10.88 0.00,10.88
             0.00,10.88 5.00,6.00 5.00,6.00
             5.00,6.00 7.00,5.88 7.00,5.88
             7.00,5.88 7.00,0.00 7.00,0.00" />
</svg>
